<svg width="67" height="63" viewBox="0 0 67 63" fill="none" xmlns="http://www.w3.org/2000/svg">
<path d="M33.835 53.3869L33.5 53.7302L33.1315 53.3869C17.219 38.5896 6.7 28.8049 6.7 18.8828C6.7 12.0163 11.725 6.86648 18.425 6.86648C23.584 6.86648 28.609 10.2997 30.3845 14.9689H36.6155C38.391 10.2997 43.416 6.86648 48.575 6.86648C55.275 6.86648 60.3 12.0163 60.3 18.8828C60.3 28.8049 49.781 38.5896 33.835 53.3869ZM48.575 0C42.746 0 37.1515 2.78093 33.5 7.14114C29.8485 2.78093 24.254 0 18.425 0C8.107 0 0 8.27411 0 18.8828C0 31.8262 11.39 42.4349 28.6425 58.4681L33.5 63L38.3575 58.4681C55.61 42.4349 67 31.8262 67 18.8828C67 8.27411 58.893 0 48.575 0Z" fill="#393E41"/>
</svg>
